<svg width="384.813" height="384.747" xmlns="http://www.w3.org/2000/svg"><path d="M478.645 2313.4c5.593-24.88 4.468-54.17-20.665-86.15-36.488-46.39-93.765-53.45-135.949-20.28-42.183 33.16-45.843 90.65-10.582 135.49 19.723 25.09 45.461 38.63 74.598 40.51l-.141-35.82c-16.968-1.02-34.468-7.74-48.261-25.28-19.547-24.87-19.387-59.84 9.699-82.71 31.523-24.79 66.679-14.35 84.66 8.52 14.141 17.98 17.113 36.84 11.312 55.05l35.329 10.67M480.652 2475.94c-22.761-21.15-29.031-55.89-3.074-83.82 26.34-28.35 61.832-25.05 84.59-3.91 24.418 22.69 28.441 56.12 2.105 84.47-25.765 27.72-59.414 25.76-83.621 3.26zm104.207-112.14c-44.074-40.95-101.523-38.04-137.476.65-33.836 36.41-33.492 94.96 10.582 135.91 44.07 40.95 102.277 36.82 136.117.4 35.953-38.69 34.848-96.01-9.223-136.96M731.137 2634.54c-.422-31.96.828-68.56 2.918-100.22l-3.082-2.01c-31.008 15.54-62.883 30.84-92.063 41.49l67.809-104.13-31.477-20.49-98.015 150.51 29.113 18.96c4.73 3.08 7.156 2.98 10.594 1.84 22.714-7.45 53.91-20.16 82.515-33.55-1.328 29.47-1.562 66.05.129 92.43l34.793 22.66 98.016-150.52-33.133-21.58-68.117 104.61M907.438 2585.84l-35.801-17.43-78.61 161.48 35.801 17.43 78.61-161.48M1013.11 2788.73l-48.399-18.15 52.369-139.62-37.021-13.89-52.368 139.62-48.39-18.15-10.711 28.56 133.8 50.19 10.72-28.56M1140.86 2884.36l.33-1.37-15.65-33.98 42.85 10.31 7.07-29.39-83.78-20.16 9.85-40.92 77.18 18.57c-1.09-7.53-2.9-18.13-4.26-24.56-1.3-6.71-4.33-8.6-9.82-9.92l-56.03-13.48 10.04-41.75c.67-2.75 2.71-4 5.18-3.4l81.3 19.56 6.94-28.84-123.88-29.8-42.01 174.68 43.66 10.51 14.5 35.15 36.53 8.79M1485.1 2706.06l-21.74-.69c-5.64-.18-8.77.85-12.32 5.54-28.65 38.93-66.75 81.8-100.25 113.51l3.9-122.52-37.54-1.19-5.73 179.53 26.82.86c5.65.18 9.08-1.41 12.58-4.69 26.75-23.45 65.61-63.46 94.39-97.58l-3.37 105.57 37.54 1.2 5.72-179.54M1619.01 2840.22c-9.79-16.7-22.54-41.02-35.37-66.17l54.94-6.91c-5.98 27.24-12.33 53.66-18.16 72.9zm-113.95-134.02c26.62 51.03 66.12 124.95 92.78 169.43l47.09-5.92c4.76-.6 6.44-3.09 7.69-6.67 14.9-46.86 33.73-121.26 47.52-181.37l-44.28 5.57c-3.28 14.65-6.56 31.58-10.33 49.14l-76.25 9.58c-8.01-16.08-15.94-31.6-22.46-45.01l-41.76 5.25M1866.92 2790.06l-50.04 12.99-37.46-144.38-38.28 9.93 37.46 144.38-50.04 12.98 7.68 29.54 138.35-35.91-7.67-29.53M1888.27 2623.18l-37.48 13.47 60.74 169.05 37.48-13.47-60.74-169.05M2069.24 2706.92c-27.83 13.81-62.54 7.4-79.49-26.76-17.21-34.66-1.58-66.7 26.25-80.51 29.86-14.82 62.54-6.76 79.75 27.89 16.83 33.91 3.1 64.69-26.51 79.38zm-68.06-137.12c-53.89 26.75-71.47 81.52-47.99 128.83 22.11 44.52 76.99 64.89 130.88 38.14 53.88-26.75 70.6-82.65 48.49-127.18-23.47-47.31-77.5-66.54-131.38-39.79M2249.07 2416.51l-17.64 12.73c-4.57 3.3-6.43 6.04-6.37 11.91 1.08 48.33-2.91 105.54-10.07 151.11l-71.72-99.4-30.47 21.98 105.1 145.66 21.75-15.7c4.59-3.3 6.35-6.66 7.11-11.39 6.86-34.9 13.21-90.32 15.16-134.91l61.8 85.66 30.46-21.98-105.11-145.67M2436.94 2440.73c-17.97-7.23-42.91-18.67-68.46-30.71l39.24-39.06c11.93 25.19 23.07 49.98 30.21 68.77zm-172.09-36.35c52.26 24.09 128.69 58.42 176.97 77.31l33.63-33.48c3.42-3.39 3.23-6.38 2.04-9.98-16.88-46.18-47.49-116.55-73.31-172.54l-31.64 31.48c6.37 13.6 14.13 29 21.88 45.19l-54.45 54.21c-16.18-7.83-31.94-15.26-45.3-21.88l-29.82 29.69M2486.06 2155.68l-72.23 94.15 142.56 109.37 24.08-31.38-115-88.22c-2.22-1.72-2.54-4.1-.99-6.12l45.56-59.4-23.98-18.4M163.637 1625.76c4.414 30.75-12.539 61.71-50.274 67.13-38.3 5.5-63.836-19.37-68.25-50.11-4.738-32.99 13.14-61.52 51.434-67.01 37.457-5.38 62.398 17.29 67.09 49.99zm-151.508 21.75c8.543 59.55 55.058 93.38 107.336 85.88 49.195-7.07 85.707-52.82 77.16-112.37-8.551-59.54-56.422-92.89-105.617-85.83-52.274 7.5-87.43 52.78-78.88 112.32M0 1379.73l1.918 118.61 179.637-2.91-.641-39.54-144.894 2.34c-2.825.05-4.547-1.62-4.59-4.16l-1.211-74.83-30.219.49M12.223 1259.22l-4.38 39.31 56.434 6.29c34.649 28.3 76.696 59.14 114.496 82.11l4.786-42.95c-30.289-16.46-59.793-37.36-81.094-55.37 25.644-13.34 57.91-27.38 91.324-36.44l4.656-41.84c-43.148 14.81-89.757 35.2-129.793 55.18l-56.43-6.29M188.66 1033.89c-30.347 10-65.629 19.82-96.46 27.34l-.99 3.54c24.142 24.92 48.321 50.7 67.259 75.33l-119.707-33.36-10.09 36.19 173.031 48.22 9.332-33.46c1.516-5.44.684-7.73-1.43-10.66-13.937-19.43-35.441-45.35-56.812-68.61 28.508-7.6 63.469-18.38 88.121-27.93l11.149-39.98-173.036-48.24-10.613 38.1 120.246 33.52M255.43 929.301l-59.285-27.211 13.312-29c9.543-20.809 26.727-28.442 46.742-19.258 17.707 8.117 22.086 25.66 12.539 46.457zm-87-39.949-49.028-22.5-16.488 35.937 163.231 74.922 31.101-67.75c18.848-41.07 11.449-77.09-23.965-93.34-35.422-16.269-71.285-.41-89.773 39.879l-15.078 32.852M207.078 697.25l-20.09 34.371 155.078 90.649 20.098-34.379-155.086-90.641M407.027 667.641c-18.613 24.879-52.496 34.8-83.023 11.949-30.981-23.18-31.469-58.828-12.856-83.692 19.965-26.699 52.778-34.238 83.758-11.058 30.305 22.68 31.918 56.332 12.121 82.801zM349.27 534.102l-7.329-34.043-35.574 12.171 7.555 35.641c-10.504 6.949-20.66 16.289-29.457 28.051-36.047 48.16-27.059 104.976 15.226 136.637 39.801 29.761 97.977 23.222 134.02-24.957 36.047-48.172 25.758-105.61-14.043-135.372-21.254-15.921-46.344-22-70.398-18.128M550.852 399.16c-34.707-35.98-78.778-28.789-111.297 2.602-31.504 30.386-40.688 74.547-5.981 110.519l74.117 76.84 27.844-26.851-73.918-76.649c-20.39-21.129-15.562-45.41.293-60.699 16.863-16.274 40.285-19.262 60.68 1.898l73.918 76.621 28.457-27.461-74.113-76.82M707.813 325.27c-6.434-4.04-15.672-9.551-21.446-12.688-5.941-3.363-9.347-2.293-13.922 1.027L625.82 347.48l-25.234-34.75c-1.66-2.281-1.289-4.64.769-6.148l67.661-49.141-17.434-24-103.086 74.879 105.586 145.371 101.715-73.89-17.766-24.449L668.32 406l-24.734-34.07 64.227-46.66M923.238 209.941c-5.586-5.171-13.664-12.261-18.765-16.41-5.219-4.39-8.766-3.961-13.868-1.519l-52.011 24.769-18.461-38.75c-1.215-2.562-.414-4.812 1.879-5.902l75.472-35.957-12.754-26.781-114.996 54.789 77.254 162.172 113.461-54.071-12.992-27.261-77.769 37.031-18.102-37.992 71.652-34.118M1098.53 192.602l-49.01 16.437-47.45-141.398-37.492 12.57 47.452 141.41-49.003 16.449 9.707 28.922L1108.23 221.5l-9.7-28.898M1174.92 67.012c13.05-12.442 37.77-23.121 55.1-25.602 22.92-3.289 37.86 1.399 39.83 15.11 1.64 11.449-6.26 18.011-23.35 28.171l-26.82 15.84c-21.32 12.461-37.88 28.258-33.95 55.641 3.97 27.68 31.86 45.078 82.18 37.848 19.84-2.848 40.81-11.848 52.5-19.801l-4.49-31.309c-14.93 11.27-33.5 19.082-51.95 21.719-25.43 3.652-36.18-3.649-37.75-14.547-1.52-10.633 4.98-16.98 20.51-26.062l27.11-15.879c26.55-15.782 40.19-32.012 36.9-54.942-4.73-32.969-36.89-48.34-83.3-41.66-20.4 2.93-44.72 12.402-57.21 22.762l4.69 32.71M1394.21 149.691l-1.06-65.242 31.92-.52c22.87-.378 37.2 11.833 37.55 33.86.31 19.492-13.62 31.02-36.5 31.391zm-1.55-95.75L1391.78 0l-39.54.64 2.91 179.63 74.57-1.211c45.19-.719 74.48-22.95 73.86-61.93-.63-38.988-30.43-64.488-74.77-63.77l-36.15.582M1618.68 160.719c-30.78-4.199-55.9-29-50.76-66.778 5.23-38.34 36.15-56.07 66.93-51.87 33.03 4.488 55.57 29.511 50.33 67.851-5.12 37.5-33.75 55.269-66.5 50.797zm20.68-151.68c-59.61-8.117-104.92 27.332-112.05 79.652-6.72 49.258 27.27 96.93 86.87 105.059 59.61 8.121 104.83-28.75 111.55-78.008 7.13-52.32-26.76-98.57-86.37-106.703M1837.66 149.141c21.62 6.539 28.79 22.851 23.99 38.808-4.98 16.5-19.07 24.043-40.96 17.442l-35.98-10.86c-1.62-.492-2.91-2.07-2.17-4.492l42.19-139.808-37.85-11.422-51.91 171.972 81.38 24.571c43.81 13.218 74.46-2.301 83.6-32.582 9.55-31.641-6.41-52.09-27.41-64.629 21.76-11.422 54.98-33.551 77.11-50.192l-46.77-14.117c-30.71 22.598-64.79 43.59-92.05 58.648-1.84 1.231-2.82 1.52-3.79 4.77l-.75 2.422 31.37 9.469M2036.41 290.719l-47.15-21.188 61.16-136-36.06-16.211-61.15 136-47.13-21.191-12.52 27.812 130.33 58.61 12.52-27.832M2164.91 193.32l-34.71-19.511-88.01 156.543 34.71 19.507 88.01-156.539M2256.06 371.332c1.7-7.402 3.85-17.953 4.9-24.441 1.21-6.7-.92-9.571-5.56-12.77l-46.2-32.012 39.09-56.41-32.48-22.5-102.31 147.602 104.69 72.539 17.21-24.84-69.4-48.09c-1.62-1.109-2.15-2.851-.7-4.941l26.7-38.539 64.06 44.402M2433.58 533.609c2.99-6.988 6.97-16.968 9.16-23.16 2.38-6.39.78-9.59-3.22-13.578l-39.77-39.68 48.46-48.582-27.99-27.91-126.84 127.133 90.16 89.938 21.33-21.379-59.77-59.629c-1.38-1.41-1.6-3.211.2-5l33.1-33.192 55.18 55.039M2515.34 621.23c13.77 17.911 10.09 35.352-3.13 45.532-13.65 10.508-29.49 8.429-43.44-9.692l-22.91-29.789c-1.03-1.32-1.17-3.351.84-4.922l115.73-89.058-24.12-31.332-142.37 109.551 51.86 67.39c27.91 36.27 61.87 41.481 86.93 22.18 26.19-20.149 25.14-46.07 15.37-68.488 24.34 3.378 64.24 4.738 91.92 4.117l-29.81-38.731c-38.12.492-78.04-2.308-109-5.937-2.21-.082-3.17-.41-5.84 1.66l-2.03 1.559 20 25.96M2574.69 814.16c11.86-15.289 29.69-36.129 48.26-57.398l26.82 48.418c-27.48 4.57-54.37 8.492-74.39 10.23zm82.03-155.551c-37.46 43.692-91.38 107.801-122.77 149.071l23.01 41.5c2.32 4.199 5.25 4.82 9.04 4.672 49.02-3.602 125.08-13.75 185.98-23.282l-21.62-39.05c-14.81 2.41-31.74 5.652-49.44 8.671l-37.22-67.203c11.93-13.398 23.39-26.527 33.41-37.558l-20.39-36.821M2825.94 1028.3l-7.4-20.45c-1.93-5.31-4.04-7.83-9.73-9.389-46.75-12.172-100.7-31.66-142.57-51.039l115.23-41.781-12.81-35.309-168.85 61.227 9.14 25.222c1.93 5.309 4.67 7.93 9.02 9.957 31.68 16.153 83.27 37.402 125.61 51.482l-99.3 36 12.81 35.31 168.85-61.23M2878.64 1135.39c-7.89 5.29-14.71 10.12-22.7 14.86-16.87-45.9-59.98-70.19-106.54-60.95-52.64 10.43-81.97 60.02-70.88 115.99 6.21 31.31 23.01 55.06 48.13 69.94l16.13-31.99c-14.67-8.61-27.23-22.54-31.56-44.43-6.16-31.04 9.84-62.13 46.15-69.34 39.35-7.79 65.96 17.46 71.62 46 4.43 22.44-1.47 40.6-14.9 54.22l26.66 25.52c14.39-17.53 25.72-40.23 22.46-72.71 8.53-4.86 15.13-9.34 22.01-13.87l-6.58-33.24M2734.73 1382.52c17.44-8.38 42.7-19.08 68.81-29.83l2.4 55.3c-26.64-8.17-52.46-16.66-71.15-24.05zm142.83-102.56c-53.02 22.36-129.88 55.64-176.36 78.57l2.05 47.41c.19 4.78 2.54 6.68 5.99 8.22 45.47 18.66 118.07 43.5 176.82 62.16l-1.93-44.58c-14.32-4.47-30.92-9.12-48.11-14.3l-3.32-76.76c16.68-6.64 32.77-13.28 46.68-18.69l-1.82-42.03M2878.97 1552.51l2.52-39.74-179.24-11.35-2.52 39.74 179.24 11.35M2832.5 1595.24c8.01 16.15 10.9 42.92 8.15 60.22-3.65 22.87-12.56 35.75-26.23 33.57-11.45-1.82-15.35-11.31-20-30.64l-7.19-30.31c-5.6-24.06-15.78-44.56-43.12-48.91-27.62-4.4-52.48 17.1-60.47 67.31-3.17 19.8-.76 42.49 3.38 56.02l31.23 4.97c-6.35-17.6-8.3-37.64-5.37-56.05 4.04-25.39 14.2-33.49 25.07-31.76 10.59 1.69 14.75 9.78 18.81 27.31l7.15 30.59c7.23 30.04 18.69 47.88 41.56 51.52 32.91 5.24 57.09-20.94 64.48-67.24 3.24-20.37 1.36-46.4-4.83-61.4l-32.62-5.2" style="fill:#0f1d3e;fill-opacity:1;fill-rule:nonzero;stroke:none" transform="matrix(.13333 0 0 -.13333 0 384.747)"/><path d="M135.742 1978.5c0 36.21 29.321 65.54 65.508 65.54 36.188 0 65.52-29.33 65.52-65.54 0-36.16-29.332-65.55-65.52-65.55-36.187 0-65.508 29.39-65.508 65.55M2617.45 1978.5c0 36.21 29.31 65.54 65.5 65.54 36.2 0 65.51-29.33 65.51-65.54 0-36.16-29.31-65.55-65.51-65.55-36.19 0-65.5 29.39-65.5 65.55" style="fill:#ee224d;fill-opacity:1;fill-rule:nonzero;stroke:none" transform="matrix(.13333 0 0 -.13333 0 384.747)"/><path d="M1350.63 1438.62c-31.62 27.96-49.32 64.03-49.32 96.57 0 21.11 13.22 48.17 44.18 48.17 49.58 0 101.27-76.97 132.87-182.68-43.61-10.06-88.13 2.95-127.73 37.94m-277.98 160.45c-1.69 115.28 22.59 162.21 43.25 181.23 12.75 11.78 25.12 13.46 31.08 13.46 32.95 0 52.6-51.11 54.71-132.02 3.3-123.26-43.61-199.19-91.81-224.79-21.6 46.61-36.35 101.44-37.23 162.12m492.77 425.66c-12.06 22.63-23.5 44.27-33.52 65.29 74.3-53.86 138.98-127.98 182.46-199.85 21.48-35.45 47.07-115.09 24.36-177.78-11.27-31.12-33.32-54.07-65.61-68.43 6.35 166.1-59.53 290.07-107.69 380.77m-96.57 142.68c-25.89 12.23-47.33 21.15-73.45 27.33-37.45 8.86-60.26 8.7-80.09 8.72-12.92 0-9.19 7.91-7.77 10.27 18.29 30.21 79.77 47.86 95.37 51.45 25.58 5.92 41.01 15.64 41.01 34.69 0 41.79-59.75 53.12-76.84 59.57-8.23 3.11-2.04 8.46-.21 9.72 13.92 9.79 40.83 16.57 64.27 16.57 28.67 0 47.54-5.54 62.79-9.8 53.77-15.11 60.08 19.32 60.08 29.75 0 20.6-20.63 38.65-28.87 47.22-4.1 4.23-.88 6.74 3.34 6.26 92.89-10.49 139.71-87.41 143.75-104.96 1.15-5.08 2.68-10.84-7.26-7.83-19.18 5.84-39.81 9.11-61.55 9.11-4.18 0-41.5-.61-76.62-21.77-28.44-17.14-62.34-52.17-62.34-121.77 0-15.16 1.54-29.93 4.39-44.53m384.96-66.59c11.57 0 34.05-3.72 34.05-24.37 0-20.63-19.69-25.5-31.12-25.5-28.59 0-90 25.37-107.4 35.51 38.79 2.17 69.08 14.36 104.47 14.36m9.65-80.84c12.25.29 56.06 6.99 58.54 52.54 2.17 40.04-28.56 61.74-67.78 61.74-47.01 0-80.74-18.41-133.65-18.41-32.11 0-69.43 17.04-75.14 20.11-37.14 21.91-61.28 46.11-61.28 81.32 0 20.8 12.85 32.15 25.54 32.57 14.75.48 26.7-9.64 27.46-23.11.61-11.74-8.36-21.03-8.36-21.03 10.98-5.63 35.39-.47 35.39 31.54 0 28.14-23.34 46.55-52.36 46.55-38.03 0-61.64-29.76-61.64-66.52 0-77.94 77.19-113.31 158.99-150.73 104.94-48.06 223.94-102.53 227.71-256.08 3.61-148.7-140.25-274.52-292.62-407.72-36.19-31.62-72.63-63.57-107.89-96.31-4.96 25.51-10.47 49.81-16.62 72.76 76.92 35.35 134.1 124.28 149.59 226.92 50.14 17.45 84.92 49.44 101.31 94.72 26.91 74.31-1.48 164.43-27.19 206.89-48.08 79.41-113.92 152.42-185.35 205.54-16.11 11.98-32.36 22.8-48.59 32.46-6.98 22.08-11.1 43.97-11.1 66.21 0 43.16 15.45 74.37 45.92 92.73 27.74 16.68 57.77 16.88 59.08 16.88 38.91 0 52.03-12.05 73.07-12.05 12.15 0 19.61 4.7 23.94 9.47 14.93 16.24 5.04 43.67 1.8 52.69-15.74 43.71-90.35 121.76-182.89 121.76-11.85 0-22.5-4.75-29.2-13.03-5.76-7.18-7.67-15.54-5.96-24.24 3.09-15.74 22-28.4 30.84-42.18 3.03-4.69 2.48-9.03-3.78-7.43-7.17 1.84-38.09 13.12-80.1 13.12-29.99 0-71.92-9.74-93.21-31.21-9.45-9.53-13.71-20.79-13.71-28.13 0-9.53 3.73-21.69 22-28.38 19.79-7.24 59.41-16.2 59.41-27.94 0-7.08-21.83-8.07-50.2-17.92-19.81-6.88-83.79-35.1-83.79-79.3 0-15.48 10.97-37.95 44.66-37.23 57.68 1.25 110.69-16.41 165.07-46.98 13.19-36.9 32.8-73.82 54.03-113.76 48.84-91.9 111.38-206.41 102.96-375.8-111.44-20.74-181.4 107.28-207.28 166.04-48.14 109.38-103.13 207.56-245.12 207.56-79.85 0-151.53-40.13-201.866-113-45-65.19-70.824-154.25-70.824-244.35 0-119.08 35.476-207.41 97.32-242.37 25.82-14.57 54.6-18.57 82.79-12.16 16.85-30.57 36.18-57.25 55.95-79.3 13.16-14.75 22.4-22.97 36.84-22.97 14.46 0 23.98 11.47 23.98 11.47-28.56 23.1-59.49 58.26-84.75 102.81 19.88 12.71 110.3 60.29 110.3 251.54 0 130.11-47.02 165.75-82.99 169.13-9.8.94-35.16.6-59.88-22.16-37.43-34.53-55.64-104.05-54.16-206.7.9-64.18 16.29-122.4 38.87-172.28-17.25-2.15-34.34 1.23-50.24 10.18-50.87 28.74-80.015 106.31-80.015 212.81 0 83.38 23.613 165.43 64.815 225.08 30.99 44.86 86.29 98.34 173.86 98.34 121.69 0 168.92-84.81 214-187.28 28.8-65.46 65.75-117.02 106.82-149.08 39.2-30.6 82.48-43.57 126.76-38.31-15.9-83.86-62.03-155.18-123.34-185.76-1.93 6.3-41.64 155.14-127.76 196.41-30.52 14.63-61.59 10.81-87.01-9.68-17.51-14.11-27.51-36.49-28.12-63.03-.93-42.37 21.78-88.26 60.78-122.73 48.98-43.26 104.65-58.83 159.57-45.31 7.11-26.95 13.54-56.78 19.22-89.39-70.56-68.27-133.93-140.61-176.28-221.74h38.81c36.52 64.49 87.29 123.86 144.09 180.45 7.64-53.25 13.4-113.21 16.52-180.45h34.05c-3.5 76.54-10.41 146.58-20.59 209.68 39.79 37.78 81.7 74.5 123.2 110.79 158.5 138.59 308.19 269.47 304.15 434.09-2.45 100.6-48.27 163.7-107.37 208.64" style="fill:#0f1d3e;fill-opacity:1;fill-rule:nonzero;stroke:none" transform="matrix(.13333 0 0 -.13333 0 384.747)"/><path d="M1728.38 2161.87c34.61-.72 77.87 36.25 77.87 36.25s-18.02 3.82-70.35 4.04c12.35 22.68 26.96 65.63 27.03 68.72 0 0-69.19-33.69-70.03-73.44-.08-3.58.89-34.85 35.48-35.57" style="fill:#0f1d3e;fill-opacity:1;fill-rule:nonzero;stroke:none" transform="matrix(.13333 0 0 -.13333 0 384.747)"/><path d="M1229.88 746.539c-90.15 0-163.24-73.059-163.24-163.219 0-90.179 73.09-163.238 163.24-163.238 90.16 0 163.25 73.059 163.25 163.238 0 90.16-73.09 163.219-163.25 163.219m195.89-163.219c0-108.199-87.72-195.922-195.89-195.922-108.21 0-195.88 87.723-195.88 195.922 0 108.16 87.67 195.879 195.88 195.879 108.17 0 195.89-87.719 195.89-195.879" style="fill:#f8a223;fill-opacity:1;fill-rule:nonzero;stroke:none" transform="matrix(.13333 0 0 -.13333 0 384.747)"/><path d="M1654.3 746.539c-90.17 0-163.2-73.059-163.2-163.219 0-90.179 73.03-163.238 163.2-163.238 90.18 0 163.28 73.059 163.28 163.238 0 90.16-73.1 163.219-163.28 163.219m195.92-163.219c0-108.199-87.72-195.922-195.92-195.922-108.16 0-195.88 87.723-195.88 195.922 0 108.16 87.72 195.879 195.88 195.879 108.2 0 195.92-87.719 195.92-195.879" style="fill:#2ab356;fill-opacity:1;fill-rule:nonzero;stroke:none" transform="matrix(.13333 0 0 -.13333 0 384.747)"/><path d="M1017.67 958.75c-108.182 0-195.889-87.699-195.889-195.879 0-108.18 87.707-195.902 195.889-195.902 5.72 0 11.37.312 16.98.801-.4 5.14-.65 10.32-.65 15.55 0 5.801.3 11.52.77 17.211a169.03 169.03 0 0 0-17.1-.883c-90.15 0-163.236 73.063-163.236 163.223 0 90.18 73.086 163.238 163.236 163.238 90.15 0 163.23-73.058 163.23-163.238 0-72.402-47.14-133.769-112.42-155.121-1.19-7.969-1.84-16.148-1.84-24.43 0-3.379.13-6.738.34-10.078 84.29 21.899 146.56 98.496 146.56 189.629 0 108.18-87.69 195.879-195.87 195.879" style="fill:#3582cc;fill-opacity:1;fill-rule:nonzero;stroke:none" transform="matrix(.13333 0 0 -.13333 0 384.747)"/><path d="M1866.53 958.77c-102.93 0-187.27-79.418-195.2-180.309 11.04-.961 21.86-2.82 32.29-5.551 5.21 85.488 76.15 153.219 162.91 153.219 90.19 0 163.24-73.078 163.24-163.238 0-90.18-73.05-163.243-163.24-163.243-81.82 0-149.63 60.231-161.39 138.832-10.8 3.512-22.07 5.911-33.71 7.141 8.73-100.09 92.75-178.652 195.1-178.652 108.18 0 195.9 87.722 195.9 195.922 0 108.16-87.72 195.879-195.9 195.879" style="fill:#ee224d;fill-opacity:1;fill-rule:nonzero;stroke:none" transform="matrix(.13333 0 0 -.13333 0 384.747)"/><path d="M1458.42 583.32c0 5.801.3 11.52.78 17.211-5.63-.57-11.32-.883-17.11-.883-81.84 0-149.61 60.231-161.42 138.793a162.345 162.345 0 0 1-33.67 7.149c8.76-100.059 92.74-178.621 195.09-178.621 5.73 0 11.38.312 16.96.801-.41 5.14-.63 10.3-.63 15.55" style="fill:#0c0b0b;fill-opacity:1;fill-rule:nonzero;stroke:none" transform="matrix(.13333 0 0 -.13333 0 384.747)"/><path d="M1442.09 958.77c-102.93 0-187.29-79.45-195.21-180.309 11.08-1 21.86-2.84 32.31-5.551 5.19 85.469 76.12 153.219 162.9 153.219 90.18 0 163.25-73.078 163.25-163.238 0-72.422-47.15-133.789-112.42-155.141a167.037 167.037 0 0 1-1.82-24.43c0-3.379.1-6.738.31-10.078 84.3 21.899 146.58 98.496 146.58 189.649 0 108.16-87.69 195.879-195.9 195.879" style="fill:#0c0b0b;fill-opacity:1;fill-rule:nonzero;stroke:none" transform="matrix(.13333 0 0 -.13333 0 384.747)"/></svg>